<?xml version="1.0" encoding="iso-8859-1"?>
<!-- Uploaded to: SVG Repo, www.svgrepo.com, Generator: SVG Repo Mixer Tools -->
<svg fill="#000000" height="800px" width="800px" version="1.1" id="Layer_1" xmlns="http://www.w3.org/2000/svg" xmlns:xlink="http://www.w3.org/1999/xlink" 
	 viewBox="0 0 512 512" xml:space="preserve">
<g>
	<g>
		<path d="M353.684,40.426c-53.455,0-97.321,41.728-100.802,94.316h-40.67V60.636c0-7.883-4.584-15.046-11.742-18.351L112.891,1.865
			c-10.132-4.677-22.141-0.253-26.818,9.881c-4.678,10.135-0.253,22.142,9.881,26.819l75.836,35.002v61.174H77.476
			c-5.71,0-11.153,2.414-14.984,6.648c-3.832,4.233-5.695,9.891-5.127,15.573l9.431,94.315l0.003,0.031l0.005,0.044l24.244,242.447
			c1.035,10.332,9.728,18.2,20.111,18.2h80.841h80.841V512c10.383,0,19.076-7.869,20.111-18.2l24.244-242.447l0.005-0.044
			l0.003-0.031l1.502-15.032c11.14,4.107,22.991,6.285,34.976,6.285c55.72,0,101.052-45.333,101.052-101.052
			C454.735,85.758,409.403,40.426,353.684,40.426z M278.806,229.055h-66.594v20.21v20.21v202.103h-40.421V269.476v-20.21v-20.21
			h-66.594l-5.389-53.894h71.984v53.894h40.421v-53.894h71.984L278.806,229.055z M353.684,202.11
			c-10.996,0-21.469-2.874-30.726-8.35l3.678-36.798c0.569-5.682-1.295-11.339-5.127-15.573c-3.831-4.235-9.274-6.648-14.984-6.648
			h-13.091c3.367-30.274,29.096-53.896,60.25-53.896c33.431,0,60.631,27.199,60.631,60.632
			C414.314,174.911,387.114,202.11,353.684,202.11z"/>
	</g>
</g>
</svg>